<?xml version="1.0" encoding="iso-8859-1"?>
<!-- Generator: Adobe Illustrator 19.0.0, SVG Export Plug-In . SVG Version: 6.00 Build 0)  -->
<svg version="1.1" id="Capa_1" xmlns="http://www.w3.org/2000/svg" xmlns:xlink="http://www.w3.org/1999/xlink" x="0px" y="0px"
	 viewBox="0 0 512 512" style="enable-background:new 0 0 512 512;" xml:space="preserve">
<g>
	<path style="fill:#ED1518;" d="M38.776,25.648c-34.153,34.153-34.153,89.584,0,123.737s89.584,34.153,123.737,0
		c8.276-8.276,14.515-17.799,18.783-27.979l51.559,86.104l27.912-43.018c-33.692-47.88-91.949-132.538-98.319-138.909
		C128.296-8.571,72.929-8.505,38.776,25.648z M66.164,52.97c19.043-19.043,49.919-19.043,68.961,0s19.043,49.919,0,68.961
		s-49.919,19.043-68.961,0S47.121,72.013,66.164,52.97z"/>
	<path style="fill:#ED1518;" d="M349.552,25.582c-6.371,6.371-64.627,91.03-98.319,138.909l27.912,43.018l51.559-86.104
		c4.268,10.179,10.507,19.703,18.783,27.979c34.153,34.153,89.584,34.153,123.737,0s34.153-89.584,0-123.737
		S383.705-8.571,349.552,25.582z M445.836,121.931c-19.043,19.043-49.919,19.043-68.961,0s-19.043-49.919,0-68.961
		c19.043-19.043,49.919-19.043,68.961,0C464.879,72.013,464.879,102.888,445.836,121.931z"/>
</g>
<path style="fill:#BFC2C4;" d="M256.003,278.397l-18.134,23.864L78.58,512c-7.864-78.141,12.521-156.503,57.452-220.904
	l53.121-76.123l24.074-34.492l4.31-6.171l1.325,3.606L256.003,278.397z"/>
<path style="fill:#A2A7AA;" d="M256.003,278.397l-18.134,23.864l-39.665-52.238c-7.769-10.229-10.818-22.907-9.051-35.049
	l24.074-34.492c1.84-0.999,3.711-1.84,5.635-2.565L256.003,278.397z"/>
<path style="fill:#D3D8DB;" d="M217.622,174.415L217.622,174.415c18.59-26.784,58.184-26.836,76.842-0.099l81.503,116.79
	c44.939,64.395,65.323,142.757,57.461,220.886l0,0L218.801,229.418C206.539,213.273,206.063,191.07,217.622,174.415z"/>
<circle style="fill:#2E2C3A;" cx="255.807" cy="201.351" r="18.312"/>
<g>
</g>
<g>
</g>
<g>
</g>
<g>
</g>
<g>
</g>
<g>
</g>
<g>
</g>
<g>
</g>
<g>
</g>
<g>
</g>
<g>
</g>
<g>
</g>
<g>
</g>
<g>
</g>
<g>
</g>
</svg>
